<svg xmlns="http://www.w3.org/2000/svg" width="274.213" height="112" viewBox="0 0 274.213 112">
  <g id="logo-hiaac" transform="translate(-328.21 -189.476)">
    <line id="Linha_34" data-name="Linha 34" y2="32.433" transform="translate(479.51 269.043)" fill="none" stroke="#7d7c7b" stroke-width="4"/>
    <g id="Grupo_110" data-name="Grupo 110" transform="translate(488.303 272.751)">
      <path id="Caminho_257" data-name="Caminho 257" d="M784.711,425h1.228v5.725h-1.228v-2.334h-2.488v2.334H781V425h1.228v2.269h2.488Z" transform="translate(-780.995 -425)" fill="#7d7c7b"/>
      <path id="Caminho_258" data-name="Caminho 258" d="M798.717,430.53a2.158,2.158,0,0,1-.891-.822,2.339,2.339,0,0,1-.317-1.228V425h1.236v3.505a1.22,1.22,0,0,0,.163.639,1.06,1.06,0,0,0,.451.415,1.481,1.481,0,0,0,.663.142,1.456,1.456,0,0,0,.659-.142,1.037,1.037,0,0,0,.443-.415,1.246,1.246,0,0,0,.159-.639V425h1.228v3.481a2.39,2.39,0,0,1-.313,1.232,2.117,2.117,0,0,1-.874.821,3.065,3.065,0,0,1-2.606,0Z" transform="translate(-791.67 -425)" fill="#7d7c7b"/>
    </g>
    <g id="Grupo_111" data-name="Grupo 111" transform="translate(500.046 272.751)">
      <path id="Caminho_259" data-name="Caminho 259" d="M818.586,428.184a1.441,1.441,0,0,1,.224.785,1.732,1.732,0,0,1-.248.935,1.609,1.609,0,0,1-.691.61,2.307,2.307,0,0,1-1,.211h-2.659V425h2.554a2.081,2.081,0,0,1,.878.187,1.59,1.59,0,0,1,.655.545,1.463,1.463,0,0,1,.248.854,1.264,1.264,0,0,1-.586,1.041A1.542,1.542,0,0,1,818.586,428.184Zm-3.151-2.118v1.293h1.179a.684.684,0,0,0,.5-.179.684.684,0,0,0,.1-.8.617.617,0,0,0-.24-.232.729.729,0,0,0-.358-.085Zm1.891,3.416a.6.6,0,0,0,.2-.472.574.574,0,0,0-.1-.326.74.74,0,0,0-.618-.325h-1.374v1.3h1.383A.732.732,0,0,0,817.326,429.481Z" transform="translate(-814.207 -425)" fill="#7d7c7b"/>
    </g>
    <g id="Grupo_112" data-name="Grupo 112" transform="translate(507.414 272.751)">
      <path id="Caminho_260" data-name="Caminho 260" d="M838.692,425.378a2.907,2.907,0,0,1,1.1,1.033,2.794,2.794,0,0,1,0,2.9,2.9,2.9,0,0,1-1.1,1.033,3.155,3.155,0,0,1-1.533.378h-2.114V425h2.114A3.152,3.152,0,0,1,838.692,425.378Zm-.65,4.013a1.6,1.6,0,0,0,.642-.618,1.922,1.922,0,0,0,0-1.83,1.575,1.575,0,0,0-.642-.614,1.972,1.972,0,0,0-.931-.216h-.838v3.5h.838A1.946,1.946,0,0,0,838.042,429.391Z" transform="translate(-835.045 -425)" fill="#7d7c7b"/>
    </g>
    <g id="Grupo_113" data-name="Grupo 113" transform="translate(513.245 272.751)">
      <path id="Caminho_261" data-name="Caminho 261" d="M852.764,429.611h2.773v1.114h-4V425h3.936v1.114h-2.708v1.212h2.375v1.041h-2.375Z" transform="translate(-851.536 -425)" fill="#7d7c7b"/>
    </g>
    <g id="Grupo_114" data-name="Grupo 114" transform="translate(520.068 272.751)">
      <path id="Caminho_262" data-name="Caminho 262" d="M870.833,430.725V425h1.228v5.725Z" transform="translate(-870.833 -425)" fill="#7d7c7b"/>
    </g>
    <g id="Grupo_115" data-name="Grupo 115" transform="translate(522.304 272.751)">
      <path id="Caminho_263" data-name="Caminho 263" d="M880.793,425h1.22v5.725h-.74l-2.9-3.342v3.342h-1.22V425h.7l2.936,3.391Z" transform="translate(-877.158 -425)" fill="#7d7c7b"/>
      <path id="Caminho_264" data-name="Caminho 264" d="M897.434,425v1.114H895.6v4.611h-1.228v-4.611h-1.854V425Z" transform="translate(-887.09 -425)" fill="#7d7c7b"/>
      <path id="Caminho_265" data-name="Caminho 265" d="M909.275,429.611h2.773v1.114h-4V425h3.936v1.114h-2.708v1.212h2.375v1.041h-2.375Z" transform="translate(-897.125 -425)" fill="#7d7c7b"/>
      <path id="Caminho_266" data-name="Caminho 266" d="M922.73,429.611h2.5v1.114H921.5V425h1.228Z" transform="translate(-905.823 -425)" fill="#7d7c7b"/>
    </g>
    <g id="Grupo_116" data-name="Grupo 116" transform="translate(542.293 272.751)">
      <path id="Caminho_267" data-name="Caminho 267" d="M933.691,430.725V425h1.228v5.725Z" transform="translate(-933.691 -425)" fill="#7d7c7b"/>
    </g>
    <g id="Grupo_117" data-name="Grupo 117" transform="translate(544.196 272.654)">
      <path id="Caminho_268" data-name="Caminho 268" d="M944.734,430.547h-.83l-.293-.5a1.965,1.965,0,0,1-.7.443,2.6,2.6,0,0,1-.935.159,2.887,2.887,0,0,1-1.468-.382,2.806,2.806,0,0,1-1.049-1.058,3,3,0,0,1-.386-1.52,2.969,2.969,0,0,1,.382-1.488,2.86,2.86,0,0,1,1.061-1.073,2.99,2.99,0,0,1,1.541-.4,3.2,3.2,0,0,1,1.167.2A2.52,2.52,0,0,1,944.7,426.4l-1.244.146a1.514,1.514,0,0,0-.6-.5,1.872,1.872,0,0,0-.809-.17,1.693,1.693,0,0,0-.874.227,1.582,1.582,0,0,0-.6.634,1.933,1.933,0,0,0-.215.919,2.06,2.06,0,0,0,.232,1,1.644,1.644,0,0,0,.627.655,1.716,1.716,0,0,0,.874.227,2.233,2.233,0,0,0,.85-.154,1.478,1.478,0,0,0,.6-.423v-.577H941.88v-1.041h2.854Z" transform="translate(-939.074 -424.725)" fill="#7d7c7b"/>
    </g>
    <g id="Grupo_118" data-name="Grupo 118" transform="translate(550.759 271.06)">
      <path id="Caminho_269" data-name="Caminho 269" d="M958.863,426.519h2.773v1.114h-4v-5.725h3.936v1.114h-2.708v1.212h2.375v1.041h-2.375Zm2.31-5.09h-1.016l-.578-.537-.569.537h-.984l1.049-1.212h1.057Z" transform="translate(-957.635 -420.217)" fill="#7d7c7b"/>
    </g>
    <g id="Grupo_119" data-name="Grupo 119" transform="translate(555.516 272.751)">
      <path id="Caminho_270" data-name="Caminho 270" d="M974.725,425h1.22v5.725h-.74l-2.9-3.342v3.342h-1.22V425h.7l2.936,3.391Z" transform="translate(-971.09 -425)" fill="#7d7c7b"/>
    </g>
    <g id="Grupo_120" data-name="Grupo 120" transform="translate(561.046 272.654)">
      <path id="Caminho_271" data-name="Caminho 271" d="M988.068,430.255a2.645,2.645,0,0,1-.988-1.069,3.224,3.224,0,0,1-.35-1.5,3.189,3.189,0,0,1,.354-1.5,2.665,2.665,0,0,1,1-1.066,2.8,2.8,0,0,1,1.476-.39,2.994,2.994,0,0,1,1.3.268,2.515,2.515,0,0,1,.924.728,2.791,2.791,0,0,1,.5,1.021l-1.236.138a1.689,1.689,0,0,0-.557-.724,1.463,1.463,0,0,0-.906-.284,1.479,1.479,0,0,0-.842.236,1.5,1.5,0,0,0-.541.646,2.214,2.214,0,0,0-.187.931,2.26,2.26,0,0,0,.183.931,1.471,1.471,0,0,0,.541.647,1.5,1.5,0,0,0,.846.236,1.464,1.464,0,0,0,1.472-1.017l1.219.13a2.721,2.721,0,0,1-.492,1.029,2.5,2.5,0,0,1-.927.732,3.042,3.042,0,0,1-1.321.273A2.754,2.754,0,0,1,988.068,430.255Z" transform="translate(-986.73 -424.725)" fill="#7d7c7b"/>
    </g>
    <g id="Grupo_121" data-name="Grupo 121" transform="translate(567.284 272.751)">
      <path id="Caminho_272" data-name="Caminho 272" d="M1004.371,430.725V425h1.228v5.725Z" transform="translate(-1004.371 -425)" fill="#7d7c7b"/>
    </g>
    <g id="Grupo_122" data-name="Grupo 122" transform="translate(568.959 272.751)">
      <path id="Caminho_273" data-name="Caminho 273" d="M1013.761,430.725l-.407-.976h-2.569l-.415.976h-1.261l2.513-5.725h.968l2.488,5.725Zm-2.554-1.992h1.716l-.854-2.033Z" transform="translate(-1009.109 -425)" fill="#7d7c7b"/>
    </g>
    <g id="Grupo_123" data-name="Grupo 123" transform="translate(487.742 283.005)">
      <path id="Caminho_274" data-name="Caminho 274" d="M784.06,459.725l-.407-.975h-2.57l-.415.975h-1.26L781.921,454h.968l2.488,5.725Zm-2.554-1.992h1.716l-.854-2.033Z" transform="translate(-779.408 -454)" fill="#7d7c7b"/>
      <path id="Caminho_275" data-name="Caminho 275" d="M799.58,457.733h-.8v1.992h-1.228V454h2.407a2.177,2.177,0,0,1,1.037.24,1.727,1.727,0,0,1,.7.667,1.873,1.873,0,0,1,.248.956,1.708,1.708,0,0,1-.3.992,1.775,1.775,0,0,1-.817.643l1.554,2.228h-1.464Zm-.8-1.066h1.025a.93.93,0,0,0,.443-.1.763.763,0,0,0,.3-.285.8.8,0,0,0,.11-.419.759.759,0,0,0-.11-.411.717.717,0,0,0-.3-.268,1,1,0,0,0-.439-.094h-1.025Z" transform="translate(-791.139 -454)" fill="#7d7c7b"/>
    </g>
    <g id="Grupo_124" data-name="Grupo 124" transform="translate(498.883 283.005)">
      <path id="Caminho_276" data-name="Caminho 276" d="M815.83,454v1.114H814v4.611h-1.228v-4.611h-1.854V454Z" transform="translate(-810.918 -454)" fill="#7d7c7b"/>
    </g>
    <g id="Grupo_125" data-name="Grupo 125" transform="translate(504.373 283.005)">
      <path id="Caminho_277" data-name="Caminho 277" d="M826.443,459.725V454h1.228v5.725Z" transform="translate(-826.443 -454)" fill="#7d7c7b"/>
    </g>
    <g id="Grupo_126" data-name="Grupo 126" transform="translate(506.609 283.005)">
      <path id="Caminho_278" data-name="Caminho 278" d="M836.826,455.114H834v1.334h2.537v1.065H834v2.212h-1.228V454h4.058Z" transform="translate(-832.768 -454)" fill="#7d7c7b"/>
    </g>
    <g id="Grupo_127" data-name="Grupo 127" transform="translate(511.293 283.005)">
      <path id="Caminho_279" data-name="Caminho 279" d="M846.016,459.725V454h1.228v5.725Z" transform="translate(-846.016 -454)" fill="#7d7c7b"/>
    </g>
    <g id="Grupo_128" data-name="Grupo 128" transform="translate(513.196 282.908)">
      <path id="Caminho_280" data-name="Caminho 280" d="M852.736,459.255a2.645,2.645,0,0,1-.988-1.069,3.225,3.225,0,0,1-.35-1.5,3.189,3.189,0,0,1,.354-1.5,2.665,2.665,0,0,1,1-1.066,2.8,2.8,0,0,1,1.476-.39,2.994,2.994,0,0,1,1.3.268,2.516,2.516,0,0,1,.923.728,2.794,2.794,0,0,1,.5,1.021l-1.236.138a1.689,1.689,0,0,0-.557-.724,1.463,1.463,0,0,0-.906-.284,1.479,1.479,0,0,0-.842.236,1.5,1.5,0,0,0-.541.646,2.216,2.216,0,0,0-.187.931,2.262,2.262,0,0,0,.183.931,1.472,1.472,0,0,0,.541.647,1.5,1.5,0,0,0,.846.236,1.464,1.464,0,0,0,1.472-1.017l1.219.13a2.721,2.721,0,0,1-.492,1.029,2.5,2.5,0,0,1-.927.732,3.042,3.042,0,0,1-1.321.273A2.754,2.754,0,0,1,852.736,459.255Z" transform="translate(-851.398 -453.725)" fill="#7d7c7b"/>
    </g>
    <g id="Grupo_129" data-name="Grupo 129" transform="translate(519.434 283.005)">
      <path id="Caminho_281" data-name="Caminho 281" d="M869.039,459.725V454h1.228v5.725Z" transform="translate(-869.039 -454)" fill="#7d7c7b"/>
    </g>
    <g id="Grupo_130" data-name="Grupo 130" transform="translate(521.109 283.005)">
      <path id="Caminho_282" data-name="Caminho 282" d="M878.429,459.725l-.407-.975h-2.569l-.415.975h-1.26L876.29,454h.968l2.488,5.725Zm-2.554-1.992h1.716l-.854-2.033Z" transform="translate(-873.777 -454)" fill="#7d7c7b"/>
    </g>
    <g id="Grupo_131" data-name="Grupo 131" transform="translate(527.525 283.005)">
      <path id="Caminho_283" data-name="Caminho 283" d="M893.152,458.611h2.5v1.114h-3.725V454h1.228Z" transform="translate(-891.924 -454)" fill="#7d7c7b"/>
    </g>
    <g id="Grupo_132" data-name="Grupo 132" transform="translate(533.901 283.005)">
      <path id="Caminho_284" data-name="Caminho 284" d="M911.184,458.611h2.773v1.114h-4V454h3.936v1.114h-2.708v1.212h2.375v1.041h-2.375Z" transform="translate(-909.956 -454)" fill="#7d7c7b"/>
    </g>
    <g id="Grupo_133" data-name="Grupo 133" transform="translate(540.163 283.005)">
      <path id="Caminho_285" data-name="Caminho 285" d="M932.318,459.725l-.407-.975h-2.57l-.415.975h-1.26L930.179,454h.968l2.488,5.725Zm-2.553-1.992h1.716l-.854-2.033Z" transform="translate(-927.666 -454)" fill="#7d7c7b"/>
    </g>
    <g id="Grupo_134" data-name="Grupo 134" transform="translate(546.579 283.005)">
      <path id="Caminho_286" data-name="Caminho 286" d="M947.837,457.733h-.8v1.992h-1.228V454h2.407a2.179,2.179,0,0,1,1.037.24,1.731,1.731,0,0,1,.7.667,1.868,1.868,0,0,1,.248.956,1.707,1.707,0,0,1-.3.992,1.777,1.777,0,0,1-.818.643l1.553,2.228h-1.464Zm-.8-1.066h1.025a.928.928,0,0,0,.443-.1.76.76,0,0,0,.3-.285.8.8,0,0,0,.11-.419.758.758,0,0,0-.11-.411.717.717,0,0,0-.3-.268,1,1,0,0,0-.439-.094H947.04Z" transform="translate(-945.812 -454)" fill="#7d7c7b"/>
    </g>
    <g id="Grupo_135" data-name="Grupo 135" transform="translate(551.475 282.908)">
      <path id="Caminho_287" data-name="Caminho 287" d="M964.547,459.547l-.293-.357a3.138,3.138,0,0,1-.756.337,2.8,2.8,0,0,1-.8.118,3.058,3.058,0,0,1-1.529-.395,2.955,2.955,0,0,1-1.106-1.074,2.963,2.963,0,0,1,0-3,2.935,2.935,0,0,1,1.106-1.066,3.2,3.2,0,0,1,3.062,0,2.949,2.949,0,0,1,1.1,1.066,2.859,2.859,0,0,1,.407,1.5,2.675,2.675,0,0,1-.179.964,2.9,2.9,0,0,1-.5.85l.886,1.049ZM961.18,457.6a1.758,1.758,0,0,0,.639.655,1.763,1.763,0,0,0,1.679.053l-1.008-1.22h1.383l.374.472a1.786,1.786,0,0,0,.211-.878,1.881,1.881,0,0,0-.232-.936,1.669,1.669,0,0,0-.634-.646,1.751,1.751,0,0,0-.89-.232,1.708,1.708,0,0,0-.882.236,1.735,1.735,0,0,0-.639.646,1.932,1.932,0,0,0,0,1.85Z" transform="translate(-959.659 -453.725)" fill="#7d7c7b"/>
    </g>
    <g id="Grupo_136" data-name="Grupo 136" transform="translate(558.119 283.005)">
      <path id="Caminho_288" data-name="Caminho 288" d="M979.657,459.53a2.157,2.157,0,0,1-.89-.822,2.339,2.339,0,0,1-.317-1.228V454h1.236v3.505a1.221,1.221,0,0,0,.163.639,1.06,1.06,0,0,0,.452.415,1.481,1.481,0,0,0,.663.142,1.456,1.456,0,0,0,.659-.142,1.044,1.044,0,0,0,.443-.415,1.246,1.246,0,0,0,.158-.639V454h1.228v3.481a2.384,2.384,0,0,1-.313,1.232,2.114,2.114,0,0,1-.874.821,3.066,3.066,0,0,1-2.607,0Z" transform="translate(-978.45 -454)" fill="#7d7c7b"/>
    </g>
    <g id="Grupo_137" data-name="Grupo 137" transform="translate(564.022 283.005)">
      <path id="Caminho_289" data-name="Caminho 289" d="M995.147,459.725V454h1.228v5.725Z" transform="translate(-995.147 -454)" fill="#7d7c7b"/>
    </g>
    <g id="Grupo_138" data-name="Grupo 138" transform="translate(565.828 283.005)">
      <path id="Caminho_290" data-name="Caminho 290" d="M1005.166,454v1.114h-1.83v4.611h-1.228v-4.611h-1.854V454Z" transform="translate(-1000.254 -454)" fill="#7d7c7b"/>
      <path id="Caminho_291" data-name="Caminho 291" d="M1017.006,458.611h2.773v1.114h-4V454h3.936v1.114h-2.708v1.212h2.375v1.041h-2.375Z" transform="translate(-1010.289 -454)" fill="#7d7c7b"/>
    </g>
    <g id="Grupo_139" data-name="Grupo 139" transform="translate(575.643 283.005)">
      <path id="Caminho_292" data-name="Caminho 292" d="M1032.927,454v1.114h-1.83v4.611h-1.228v-4.611h-1.854V454Z" transform="translate(-1028.015 -454)" fill="#7d7c7b"/>
    </g>
    <g id="Grupo_140" data-name="Grupo 140" transform="translate(581.019 283.005)">
      <path id="Caminho_293" data-name="Caminho 293" d="M1044.426,459.53a2.157,2.157,0,0,1-.891-.822,2.338,2.338,0,0,1-.317-1.228V454h1.236v3.505a1.22,1.22,0,0,0,.163.639,1.059,1.059,0,0,0,.451.415,1.481,1.481,0,0,0,.663.142,1.456,1.456,0,0,0,.659-.142,1.037,1.037,0,0,0,.443-.415,1.246,1.246,0,0,0,.159-.639V454h1.228v3.481a2.39,2.39,0,0,1-.313,1.232,2.118,2.118,0,0,1-.874.821,3.065,3.065,0,0,1-2.606,0Z" transform="translate(-1043.218 -454)" fill="#7d7c7b"/>
    </g>
    <g id="Grupo_141" data-name="Grupo 141" transform="translate(586.923 283.005)">
      <path id="Caminho_294" data-name="Caminho 294" d="M1061.941,457.733h-.8v1.992h-1.228V454h2.407a2.176,2.176,0,0,1,1.037.24,1.729,1.729,0,0,1,.7.667,1.872,1.872,0,0,1,.248.956,1.705,1.705,0,0,1-.3.992,1.774,1.774,0,0,1-.817.643l1.553,2.228h-1.464Zm-.8-1.066h1.025a.928.928,0,0,0,.443-.1.764.764,0,0,0,.3-.285.8.8,0,0,0,.11-.419.758.758,0,0,0-.11-.411.718.718,0,0,0-.305-.268,1,1,0,0,0-.439-.094h-1.025Z" transform="translate(-1059.916 -454)" fill="#7d7c7b"/>
    </g>
    <g id="Grupo_142" data-name="Grupo 142" transform="translate(591.697 283.005)">
      <path id="Caminho_295" data-name="Caminho 295" d="M1078.069,459.725l-.406-.975h-2.57l-.415.975h-1.26l2.512-5.725h.968l2.489,5.725Zm-2.553-1.992h1.716l-.854-2.033Z" transform="translate(-1073.417 -454)" fill="#7d7c7b"/>
    </g>
    <g id="Grupo_143" data-name="Grupo 143" transform="translate(597.69 282.908)">
      <path id="Caminho_296" data-name="Caminho 296" d="M1090.368,457.97l1.252-.138a.706.706,0,0,0,.325.528,1.539,1.539,0,0,0,.789.163,1.6,1.6,0,0,0,.8-.146.491.491,0,0,0,.236-.448.453.453,0,0,0-.228-.4,2.142,2.142,0,0,0-.708-.244l-.553-.106a3.008,3.008,0,0,1-1.346-.569,1.4,1.4,0,0,1-.484-1.147,1.66,1.66,0,0,1,.252-.915,1.614,1.614,0,0,1,.76-.61,3.2,3.2,0,0,1,1.248-.215,2.5,2.5,0,0,1,1.6.435,1.714,1.714,0,0,1,.626,1.175l-1.212.146a.71.71,0,0,0-.309-.476,1.267,1.267,0,0,0-.691-.159,2.169,2.169,0,0,0-.577.061.544.544,0,0,0-.3.183.523.523,0,0,0-.089.317.414.414,0,0,0,.106.289.865.865,0,0,0,.337.208,3.668,3.668,0,0,0,.622.163l.529.113a2.858,2.858,0,0,1,1.293.557,1.4,1.4,0,0,1,.455,1.134,1.561,1.561,0,0,1-.6,1.309,2.866,2.866,0,0,1-1.777.464Q1090.6,459.645,1090.368,457.97Z" transform="translate(-1090.368 -453.725)" fill="#7d7c7b"/>
    </g>
    <g id="Grupo_144" data-name="Grupo 144" transform="translate(487.97 293.161)">
      <path id="Caminho_297" data-name="Caminho 297" d="M781.39,488.255a2.648,2.648,0,0,1-.988-1.069,3.229,3.229,0,0,1-.35-1.5,3.189,3.189,0,0,1,.354-1.5,2.662,2.662,0,0,1,1-1.066,2.8,2.8,0,0,1,1.476-.39,3,3,0,0,1,1.3.268,2.519,2.519,0,0,1,.923.728,2.786,2.786,0,0,1,.5,1.021l-1.236.138a1.688,1.688,0,0,0-.557-.724,1.462,1.462,0,0,0-.907-.284,1.479,1.479,0,0,0-.842.236,1.5,1.5,0,0,0-.541.646,2.22,2.22,0,0,0-.187.931,2.261,2.261,0,0,0,.182.931,1.478,1.478,0,0,0,.541.647,1.5,1.5,0,0,0,.846.236,1.464,1.464,0,0,0,1.472-1.017l1.22.13a2.715,2.715,0,0,1-.492,1.029,2.5,2.5,0,0,1-.927.732,3.045,3.045,0,0,1-1.322.273A2.753,2.753,0,0,1,781.39,488.255Z" transform="translate(-780.052 -482.725)" fill="#7d7c7b"/>
      <path id="Caminho_298" data-name="Caminho 298" d="M798.287,488.251a3.014,3.014,0,0,1-1.122-1.07,2.914,2.914,0,0,1,0-3,2.976,2.976,0,0,1,1.122-1.07,3.232,3.232,0,0,1,3.078,0,2.984,2.984,0,0,1,1.118,1.07,2.906,2.906,0,0,1,0,2.992,3.012,3.012,0,0,1-1.118,1.074,3.2,3.2,0,0,1-3.078,0Zm2.435-.988a1.743,1.743,0,0,0,.651-.651,1.909,1.909,0,0,0,0-1.854,1.736,1.736,0,0,0-.651-.651,1.83,1.83,0,0,0-1.8,0,1.742,1.742,0,0,0-.651.651,1.913,1.913,0,0,0,0,1.854,1.749,1.749,0,0,0,.651.651,1.83,1.83,0,0,0,1.8,0Z" transform="translate(-790.846 -482.725)" fill="#7d7c7b"/>
    </g>
    <g id="Grupo_145" data-name="Grupo 145" transform="translate(500.363 293.161)">
      <path id="Caminho_299" data-name="Caminho 299" d="M820.764,488.547h-.829l-.293-.5a1.963,1.963,0,0,1-.7.443,2.6,2.6,0,0,1-.936.159,2.889,2.889,0,0,1-1.468-.382,2.809,2.809,0,0,1-1.049-1.058,3.006,3.006,0,0,1-.386-1.52,2.965,2.965,0,0,1,.382-1.488,2.855,2.855,0,0,1,1.061-1.073,2.987,2.987,0,0,1,1.541-.4,3.2,3.2,0,0,1,1.167.2,2.52,2.52,0,0,1,1.476,1.472l-1.244.146a1.518,1.518,0,0,0-.6-.5,1.875,1.875,0,0,0-.81-.17,1.691,1.691,0,0,0-.874.227,1.579,1.579,0,0,0-.6.634,1.925,1.925,0,0,0-.216.919,2.053,2.053,0,0,0,.232,1,1.64,1.64,0,0,0,.626.655,1.719,1.719,0,0,0,.874.227,2.23,2.23,0,0,0,.85-.154,1.479,1.479,0,0,0,.6-.423v-.577H817.91v-1.041h2.854Z" transform="translate(-815.104 -482.725)" fill="#7d7c7b"/>
      <path id="Caminho_300" data-name="Caminho 300" d="M837.3,483h1.22v5.725h-.74l-2.9-3.342v3.342h-1.22V483h.7l2.935,3.391Z" transform="translate(-827.102 -482.903)" fill="#7d7c7b"/>
      <path id="Caminho_301" data-name="Caminho 301" d="M850.247,488.725V483h1.228v5.725Z" transform="translate(-837.821 -482.903)" fill="#7d7c7b"/>
    </g>
    <g id="Grupo_146" data-name="Grupo 146" transform="translate(514.595 293.259)">
      <path id="Caminho_302" data-name="Caminho 302" d="M860.266,483v1.114h-1.83v4.611h-1.228v-4.611h-1.854V483Z" transform="translate(-855.354 -483)" fill="#7d7c7b"/>
      <path id="Caminho_303" data-name="Caminho 303" d="M870.879,488.725V483h1.228v5.725Z" transform="translate(-865.39 -483)" fill="#7d7c7b"/>
    </g>
    <g id="Grupo_147" data-name="Grupo 147" transform="translate(521.719 293.259)">
      <path id="Caminho_304" data-name="Caminho 304" d="M879.967,483h1.309l-2.44,5.725h-.87L875.5,483h1.358l1.586,3.814Z" transform="translate(-875.502 -483)" fill="#7d7c7b"/>
    </g>
    <g id="Grupo_148" data-name="Grupo 148" transform="translate(526.305 293.259)">
      <path id="Caminho_305" data-name="Caminho 305" d="M893.126,488.725l-.407-.976h-2.57l-.415.976h-1.26L890.987,483h.968l2.489,5.725Zm-2.553-1.992h1.716l-.854-2.033Z" transform="translate(-888.474 -483)" fill="#7d7c7b"/>
    </g>
    <g id="Grupo_149" data-name="Grupo 149" transform="translate(532.299 293.161)">
      <path id="Caminho_306" data-name="Caminho 306" d="M905.425,486.97l1.253-.138a.7.7,0,0,0,.325.528,1.537,1.537,0,0,0,.788.163,1.6,1.6,0,0,0,.8-.146.491.491,0,0,0,.236-.448.454.454,0,0,0-.227-.4,2.148,2.148,0,0,0-.708-.244l-.553-.106a3.012,3.012,0,0,1-1.346-.569,1.4,1.4,0,0,1-.484-1.147,1.663,1.663,0,0,1,.252-.915,1.619,1.619,0,0,1,.76-.61,3.2,3.2,0,0,1,1.248-.215,2.5,2.5,0,0,1,1.6.435,1.713,1.713,0,0,1,.627,1.175l-1.212.146a.708.708,0,0,0-.309-.476,1.267,1.267,0,0,0-.691-.159,2.164,2.164,0,0,0-.578.061.544.544,0,0,0-.3.183.521.521,0,0,0-.089.317.417.417,0,0,0,.106.289.872.872,0,0,0,.337.208,3.7,3.7,0,0,0,.622.163l.529.113a2.861,2.861,0,0,1,1.293.557,1.4,1.4,0,0,1,.456,1.134,1.561,1.561,0,0,1-.6,1.309,2.868,2.868,0,0,1-1.777.464Q905.661,488.645,905.425,486.97Z" transform="translate(-905.425 -482.725)" fill="#7d7c7b"/>
    </g>
    <path id="Caminho_307" data-name="Caminho 307" d="M444.28,192.117q10.263,10.557,20.554,21.086a4.176,4.176,0,0,0,6.76-1.878c1.1-4.739,2.037-9.515,3.146-14.251.424-1.812-.284-2.5-1.952-2.907q-7.67-1.853-15.29-3.906a17.527,17.527,0,0,0-5.952-.75c-2.16.152-4.321.3-6.48.461-.6.046-1.357-.08-1.618.627S443.87,191.7,444.28,192.117Z" transform="translate(-74.455)" fill="#7d7c7b"/>
    <path id="Caminho_308" data-name="Caminho 308" d="M359.519,287.491c.6-.035,1.39.072,1.6-.637.231-.77-.567-1-1.073-1.291q-13.238-7.651-26.483-15.289c-1.431-.829-2.236-.66-2.6,1.087-.839,4-1.751,7.983-2.667,11.966a4.683,4.683,0,0,0,.442,2.881,4.074,4.074,0,0,0,5.192,2.764C343.023,288.447,351.271,287.974,359.519,287.491Z" transform="translate(0 -51.919)" fill="#7d7c7b"/>
    <path id="Caminho_309" data-name="Caminho 309" d="M485.659,302.354a4.267,4.267,0,0,1-2.11-.891,2.653,2.653,0,0,0-3.03-.053,74.8,74.8,0,0,1-7.2,3.742c-2.7,1.118-4.214,2.717-3.562,5.258-.23,1.685.176,2.624,1.118,3.348q5.609,4.309,11.21,8.628c1.182.91,2.005.708,2.786-.624,2.031-3.465,4.177-6.863,6.264-10.3a2.611,2.611,0,0,0,.55-2.4C490.471,306.143,490.252,302.333,485.659,302.354Z" transform="translate(-91.402 -72.067)" fill="#7d7c7b"/>
    <path id="Caminho_310" data-name="Caminho 310" d="M373.932,333.732c-1.835-1.814-3.172-3.094-5.312-2.578-3.513.159-6.6.309-9.693.436-4.327.179-8.655.322-12.981.516-2.095.094-2.371.583-1.37,2.359.72,1.278,1.568,2.487,2.255,3.781a2.9,2.9,0,0,0,3.425,1.616c4.746-.665,9.516-1.158,14.277-1.716a2.926,2.926,0,0,1,3.518,2.235c.652,1.976,1.487,3.9,2.294,5.818.283.674.319,1.707,1.271,1.754,1.052.052.977-1.026,1.233-1.7.689-1.8,1.23-3.669,2.013-5.428C376.016,338.235,376.484,336.255,373.932,333.732Z" transform="translate(-10.218 -91.51)" fill="#7d7c7b"/>
    <path id="Caminho_311" data-name="Caminho 311" d="M382.284,269.467c-.516-2.094-1.154-4.158-1.674-6.252a2.273,2.273,0,0,0-2.158-2.011,8.737,8.737,0,0,1-7.365-5.247c-.428-.906-.948-1.607-2.112-1.45q-6.949,1.267-13.9,2.537c-.456.084-.99.2-1.074.725s.4.794.792,1.028c1.2.7,2.4,1.395,3.608,2.084,6.7,3.83,13.406,7.644,20.089,11.5a2.833,2.833,0,0,0,3.426.026C383.133,271.528,382.527,270.459,382.284,269.467Z" transform="translate(-16.669 -42.023)" fill="#7d7c7b"/>
    <path id="Caminho_312" data-name="Caminho 312" d="M353.525,216c4.19-.727,8.359-1.579,12.551-2.293a4.624,4.624,0,0,0,3.811-2.568,6.42,6.42,0,0,1,3.324-3.109,2.461,2.461,0,0,0,1.616-2.081c.295-2.217.625-4.43.86-6.073.052-2.673-.312-2.922-2.278-1.992-3.844,1.818-7.664,3.685-11.5,5.515a8.777,8.777,0,0,0-3.046,2.428c-2.208,2.683-4.506,5.291-6.739,7.953-.516.615-1.639,1.165-1.14,2.058C351.551,216.85,352.684,216.141,353.525,216Z" transform="translate(-14.64 -5.115)" fill="#7d7c7b"/>
    <path id="Caminho_313" data-name="Caminho 313" d="M551.4,263.294c-3.273,1.4-6.494,2.923-9.775,4.3a3.376,3.376,0,0,0-2.375,3.32A4.024,4.024,0,0,1,538,274.078c-2.434,1.834-1.494,3.8-.69,5.956.653,1.748,1.536,2.266,3.325,1.528q4.613-1.9,9.335-3.536a3.308,3.308,0,0,0,2.562-3.14c.274-3.385.675-6.76,1.082-10.709C553.694,262.859,553.233,262.51,551.4,263.294Z" transform="translate(-134.606 -47.45)" fill="#7d7c7b"/>
    <path id="Caminho_314" data-name="Caminho 314" d="M458.321,272.883a1.72,1.72,0,0,0,1.138-2.011,2.473,2.473,0,0,0-1.847-2.367q-7.248-2.75-14.455-5.6a3.044,3.044,0,0,0-3.547.682,2.785,2.785,0,0,0-.778,3.3c.432,1.479.91,2.954,1.192,4.463.506,2.709,1.242,5.1,4.615,5.362a3.116,3.116,0,0,1,1.6.881,2.428,2.428,0,0,0,3.163.2C452.358,276.125,455.343,274.51,458.321,272.883Z" transform="translate(-71.366 -47.273)" fill="#7d7c7b"/>
    <path id="Caminho_315" data-name="Caminho 315" d="M537.439,233.034c3.785-1.554,7.518-3.232,11.274-4.857,1.075-.465,1.19-1.1.381-1.935q-5.4-5.555-10.809-11.108c-.781-.8-1.666-1.173-2.028.276-1.175,4.71-2.251,9.445-3.3,13.886C532.931,231.431,535.789,233.711,537.439,233.034Z" transform="translate(-132.354 -16.13)" fill="#7d7c7b"/>
    <path id="Caminho_316" data-name="Caminho 316" d="M431.525,210.88a8.714,8.714,0,0,1,4.985,6.827,2.878,2.878,0,0,0,2.157,2.412c4.351,1.617,8.679,3.294,13.031,4.909.666.248,1.6.963,2.072.126.444-.784-.622-1.285-1.125-1.809q-9.712-10.121-19.458-20.21a2.242,2.242,0,0,0-1.344-.906c-.772,0-1.012.606-1.1,1.219-.248,1.757-.437,3.522-.629,5.285A2.028,2.028,0,0,0,431.525,210.88Z" transform="translate(-65.864 -8.244)" fill="#7d7c7b"/>
    <path id="Caminho_317" data-name="Caminho 317" d="M511.1,263.422a6.119,6.119,0,0,0-6.109,6.251,6.028,6.028,0,0,0,6.235,6.1,6.293,6.293,0,0,0,6.213-6.223C517.5,266.38,514.44,263.419,511.1,263.422Z" transform="translate(-114.278 -47.801)" fill="#ff9d1c"/>
    <path id="Caminho_318" data-name="Caminho 318" d="M436.47,318.5a6.06,6.06,0,1,0-6.13-5.967A5.979,5.979,0,0,0,436.47,318.5Z" transform="translate(-66.019 -75.569)" fill="#ff9d1c"/>
    <path id="Caminho_319" data-name="Caminho 319" d="M451.168,350.781c-2.437-1.888-4.854-3.808-7.361-5.6-1.283-.917-6.561.66-7.152,2.168-1.516,3.871-2.887,7.8-4.3,11.711-.151.417-.334.951.207,1.221.5.248.887-.135,1.2-.47.942-1.017,1.922-2.009,2.769-3.1,2.445-3.155,5.388-5.042,9.577-4.045,1.466,0,2.933.013,4.4-.008.533-.007,1.184.02,1.406-.572C452.14,351.469,451.578,351.1,451.168,350.781Z" transform="translate(-67.221 -100.476)" fill="#7d7c7b"/>
    <path id="Caminho_320" data-name="Caminho 320" d="M406.908,236.55a6.244,6.244,0,0,0,6.24,6.12,5.942,5.942,0,0,0,6.194-6.042,6.048,6.048,0,0,0-5.975-6.074C409.97,230.581,406.927,233.4,406.908,236.55Z" transform="translate(-50.872 -26.554)" fill="#ff9d1c"/>
    <path id="Caminho_321" data-name="Caminho 321" d="M347.761,417.964h6.46v30.119h-6.46V435.8H334.67v12.279h-6.46V417.964h6.46V429.9h13.091Z" transform="translate(0 -147.7)" fill="#ff9d1c"/>
    <path id="Caminho_322" data-name="Caminho 322" d="M546.208,447.658a14.5,14.5,0,0,1-7.722-2.054,13.935,13.935,0,0,1-5.2-5.626,16.981,16.981,0,0,1-1.84-7.893,16.787,16.787,0,0,1,1.861-7.915,14.026,14.026,0,0,1,5.262-5.6,14.727,14.727,0,0,1,7.765-2.054,15.729,15.729,0,0,1,6.824,1.412,13.229,13.229,0,0,1,4.856,3.829,14.689,14.689,0,0,1,2.652,5.369l-6.5.727a8.869,8.869,0,0,0-2.931-3.808,7.7,7.7,0,0,0-4.77-1.5,7.8,7.8,0,0,0-4.428,1.241,7.94,7.94,0,0,0-2.845,3.4,11.69,11.69,0,0,0-.984,4.9,11.917,11.917,0,0,0,.962,4.9,7.748,7.748,0,0,0,2.845,3.4,7.9,7.9,0,0,0,4.449,1.241,7.7,7.7,0,0,0,7.744-5.348l6.417.685a14.311,14.311,0,0,1-2.589,5.412,13.151,13.151,0,0,1-4.877,3.85A16.017,16.017,0,0,1,546.208,447.658Zm-34.141-11h9.027l-4.492-10.7ZM525.5,447.144l-2.139-5.134H509.843l-2.182,5.134H501.03l13.22-30.119h5.091l13.091,30.119Zm-42.44-10.482h9.027l-4.492-10.7Zm13.434,10.482-2.139-5.134H480.836l-2.182,5.134h-6.631l13.22-30.119h5.091l13.091,30.119Zm-33.285,0V417.025h6.46v30.119Z" transform="translate(-87.268 -146.762)" fill="#7d7c7b"/>
    <path id="Caminho_323" data-name="Caminho 323" d="M425.779,482.612a3.8,3.8,0,1,1-.742.073A3.8,3.8,0,0,1,425.779,482.612Z" transform="translate(-60.61 -189.491)" fill="#ff9d1c"/>
  </g>
</svg>
